<?xml version="1.0" encoding="UTF-8" standalone="no"?>

<svg
   width="100"
   height="100"
   viewBox="0 0 100 100"
   version="1.1"
   xmlns="http://www.w3.org/2000/svg"
   xmlns:svg="http://www.w3.org/2000/svg"
>

  <style>
   path {
      fill: none;
      stroke: hsl(50, 6.0%, 10.0%); /* = --sand-12 */
      stroke-width: 3.75;
      stroke-linecap: round;
      stroke-linejoin: round;
   }
   @media (prefers-color-scheme: dark) {
      path {
         stroke: hsl(56, 4.0%, 92.8%);; /* = --sand-12 dark */
      }
   }
  </style>

  <path
     d="M 0.6558058,92.763251 46.04701,0.69240873"
     id="path11" />
  <path
     d="M 14.88207,99.379675 26.298687,76.222192"
     id="path13" />
  <path
     d="M 26.298687,76.222192 H 74.539761"
     id="path15" />
  <path
     d="M 74.539761,76.222192 85.956378,99.379675"
     id="path17" />
  <path
     d="m 85.956378,99.379675 h 9.215558"
     id="path19" />
  <path
     d="M 20.8165,69.605769 9.399883,92.763251"
     id="path21" />
  <path
     d="M 9.399883,92.763251 H 0.6558058"
     id="path23" />
  <path
     d="M 14.88207,99.379675 9.399883,92.763251"
     id="path25" />
  <path
     d="M 14.88207,99.379675 H 6.1379925"
     id="path27" />
  <path
     d="M 6.1379925,99.379675 0.6558058,92.763251"
     id="path29" />
  <path
     d="M 54.791437,18.429055 32.822818,62.989345"
     id="path31" />
  <path
     d="M 54.827113,0.62028971 24.078391,62.989014"
     id="path33" />
  <path
     d="m 46.011334,0.62028971 h 8.815779"
     id="path35" />
  <path
     d="M 99.34426,90.916938 54.827113,0.62028971"
     id="path37" />
  <path
     d="m 99.34426,90.916938 -4.172674,8.462737"
     id="path39" />
  <path
     d="M 20.8165,69.605769 H 71.27787"
     id="path41" />
  <path
     d="M 71.27787,69.605769 50.419049,27.297048"
     id="path43" />
  <path
     d="M 68.01598,62.989345 H 24.07874"
     id="path45" />
  <path
     d="m 54.791437,18.429055 40.380149,80.95062"
     id="path47" />
</svg>
